<svg width="154" height="18" viewBox="0 0 154 18" fill="none" xmlns="http://www.w3.org/2000/svg">
<path d="M0.0571289 0.0078125L153.511 0.00364973C153.511 9.53054 145.788 17.2538 136.261 17.2541L17.3076 17.2573C7.78069 17.2576 0.0573873 9.53471 0.0571289 0.0078125Z" fill="#C4C4C4"/>
<path d="M0.0571289 0.0078125L153.511 0.00364973C153.511 9.53054 145.788 17.2538 136.261 17.2541L17.3076 17.2573C7.78069 17.2576 0.0573873 9.53471 0.0571289 0.0078125Z" fill="url(#paint0_linear_2_21)"/>
<path d="M0.0571289 0.0078125L153.511 0.00364973C153.511 9.53054 145.788 17.2538 136.261 17.2541L17.3076 17.2573C7.78069 17.2576 0.0573873 9.53471 0.0571289 0.0078125Z" fill="url(#paint1_linear_2_21)"/>
<defs>
<linearGradient id="paint0_linear_2_21" x1="76.784" y1="0.00573112" x2="76.7845" y2="17.2557" gradientUnits="userSpaceOnUse">
<stop stop-color="#999999"/>
<stop offset="0.151042" stop-color="#777777"/>
<stop offset="0.609375" stop-color="#444444"/>
<stop offset="0.822917" stop-color="#333333"/>
<stop offset="1" stop-color="#222222"/>
</linearGradient>
<linearGradient id="paint1_linear_2_21" x1="0.0571289" y1="0.0078125" x2="153.511" y2="0.0036494" gradientUnits="userSpaceOnUse">
<stop stop-color="#333333"/>
<stop offset="0.130208" stop-color="#333333" stop-opacity="0.42"/>
<stop offset="0.932292" stop-color="#333333" stop-opacity="0.118947"/>
<stop offset="1" stop-color="#333333" stop-opacity="0.83"/>
</linearGradient>
</defs>
</svg>
