<svg width="1026" height="45" viewBox="0 0 1026 45" fill="none" xmlns="http://www.w3.org/2000/svg">
<g filter="url(#filter0_d_2_20)">
<path d="M4.15454 0.0299072L1021.42 0.00231165L1021.42 18.2791C1021.42 22.3274 1018.79 25.9047 1014.91 27.0462C1009.84 28.5367 1002.77 30.5331 997.355 31.7548C986.73 34.1509 944.432 36.3983 944.432 36.3983L88.8835 36.4215C88.0375 36.4216 87.2148 36.4285 86.3689 36.4351C79.6416 36.4877 47.1765 36.4789 26.1693 31.7524C21.3822 30.6753 15.1999 28.9054 10.6062 27.531C6.75266 26.378 4.15516 22.8169 4.15505 18.7945L4.15454 0.0299072Z" fill="url(#paint0_linear_2_20)"/>
<path d="M4.15454 0.0299072L1021.42 0.00231165L1021.42 18.2791C1021.42 22.3274 1018.79 25.9047 1014.91 27.0462C1009.84 28.5367 1002.77 30.5331 997.355 31.7548C986.73 34.1509 944.432 36.3983 944.432 36.3983L88.8835 36.4215C88.0375 36.4216 87.2148 36.4285 86.3689 36.4351C79.6416 36.4877 47.1765 36.4789 26.1693 31.7524C21.3822 30.6753 15.1999 28.9054 10.6062 27.531C6.75266 26.378 4.15516 22.8169 4.15505 18.7945L4.15454 0.0299072Z" fill="url(#paint1_linear_2_20)" fill-opacity="0.3"/>
<path d="M4.65505 18.7945L4.65455 0.529894L1020.92 0.502325L1020.92 18.2791C1020.92 22.1096 1018.43 25.4886 1014.77 26.5665C1009.7 28.0567 1002.65 30.0491 997.245 31.267C991.978 32.4549 978.792 33.6139 966.873 34.4764C960.924 34.9069 955.307 35.2626 951.177 35.5106C949.112 35.6346 947.419 35.7318 946.242 35.7979C945.653 35.8309 945.194 35.8562 944.882 35.8732L944.526 35.8925L944.436 35.8974L944.432 35.8983L944.418 35.8983L88.8835 35.9215C88.0912 35.9216 87.3194 35.9276 86.5323 35.9338L86.365 35.9351C79.6291 35.9878 47.2211 35.9765 26.2791 31.2646C21.5101 30.1916 15.3419 28.426 10.7495 27.052C7.11216 25.9637 4.65515 22.6007 4.65505 18.7945Z" stroke="black"/>
</g>
<defs>
<filter id="filter0_d_2_20" x="0.154541" y="0.00231934" width="1025.27" height="44.4421" filterUnits="userSpaceOnUse" color-interpolation-filters="sRGB">
<feFlood flood-opacity="0" result="BackgroundImageFix"/>
<feColorMatrix in="SourceAlpha" type="matrix" values="0 0 0 0 0 0 0 0 0 0 0 0 0 0 0 0 0 0 127 0" result="hardAlpha"/>
<feOffset dy="4"/>
<feGaussianBlur stdDeviation="2"/>
<feComposite in2="hardAlpha" operator="out"/>
<feColorMatrix type="matrix" values="0 0 0 0 0 0 0 0 0 0 0 0 0 0 0 0 0 0 0.25 0"/>
<feBlend mode="normal" in2="BackgroundImageFix" result="effect1_dropShadow_2_20"/>
<feBlend mode="normal" in="SourceGraphic" in2="effect1_dropShadow_2_20" result="shape"/>
</filter>
<linearGradient id="paint0_linear_2_20" x1="1021.42" y1="0.002743" x2="4.15454" y2="0.0299485" gradientUnits="userSpaceOnUse">
<stop stop-color="#212121"/>
<stop offset="0.5" stop-color="#555555"/>
<stop offset="1" stop-color="#212121"/>
</linearGradient>
<linearGradient id="paint1_linear_2_20" x1="512.788" y1="0.0161094" x2="512.789" y2="36.4328" gradientUnits="userSpaceOnUse">
<stop stop-color="#666666"/>
<stop offset="0.5" stop-color="#666666"/>
<stop offset="0.541667" stop-opacity="0.5"/>
<stop offset="1"/>
</linearGradient>
</defs>
</svg>
